<?xml version="1.0" encoding="UTF-8"?>
<svg width="41px" height="38px" viewBox="0 0 41 38" version="1.1" xmlns="http://www.w3.org/2000/svg" xmlns:xlink="http://www.w3.org/1999/xlink">
    <!-- Generator: Sketch 48.2 (47327) - http://www.bohemiancoding.com/sketch -->
    <title>Combined Shape</title>
    <desc>Created with Sketch.</desc>
    <defs></defs>
    <g id="女装模板" stroke="none" stroke-width="1" fill="none" fill-rule="evenodd" transform="translate(-449.000000, -1256.000000)">
        <g id="Group" transform="translate(0.000000, 1236.000000)" fill="#646464">
            <g id="Group-2" transform="translate(446.000000, 14.000000)">
                <g id="购物车" transform="translate(3.000000, 6.000000)">
                    <path d="M7.82426538,0.0056053371 C8.47784758,-0.0109504354 9.07751338,0.428139393 9.23880347,1.08922182 C9.24980045,1.13429532 9.25858244,1.17988056 9.26511787,1.22581358 L12.5054653,24 L35.5,24 C36.3284271,24 37,24.6715729 37,25.5 C37,26.3284271 36.3284271,27 35.5,27 L11.3013038,27 C11.2548077,27 11.2088057,26.9978845 11.1633887,26.9937444 C10.3387847,27.0284753 9.60861307,26.4310562 9.49307485,25.5981719 L6.35824295,3 L1.5,3 C0.671572875,3 1.01453063e-16,2.32842712 0,1.5 C-1.01453063e-16,0.671572875 0.671572875,1.52181327e-16 1.5,0 L7.69786215,6.66133815e-16 C7.74046573,6.20467812e-16 7.7826267,0.0018950097 7.82426538,0.0056053371 Z M14.5,37.5 C12.290861,37.5 10.5,35.709139 10.5,33.5 C10.5,31.290861 12.290861,29.5 14.5,29.5 C16.709139,29.5 18.5,31.290861 18.5,33.5 C18.5,35.709139 16.709139,37.5 14.5,37.5 Z M33.5,37.5 C31.290861,37.5 29.5,35.709139 29.5,33.5 C29.5,31.290861 31.290861,29.5 33.5,29.5 C35.709139,29.5 37.5,31.290861 37.5,33.5 C37.5,35.709139 35.709139,37.5 33.5,37.5 Z M33.5,34.5 C34.0522847,34.5 34.5,34.0522847 34.5,33.5 C34.5,32.9477153 34.0522847,32.5 33.5,32.5 C32.9477153,32.5 32.5,32.9477153 32.5,33.5 C32.5,34.0522847 32.9477153,34.5 33.5,34.5 Z M14.5,34.5 C15.0522847,34.5 15.5,34.0522847 15.5,33.5 C15.5,32.9477153 15.0522847,32.5 14.5,32.5 C13.9477153,32.5 13.5,32.9477153 13.5,33.5 C13.5,34.0522847 13.9477153,34.5 14.5,34.5 Z M15.0064732,2.16322265 L38.0611743,6.06516721 C39.9621803,6.38690723 41.244977,8.18546836 40.9301346,10.0876289 L39.4096618,19.2737607 C39.1300301,20.9631912 37.6690584,22.2022228 35.9566421,22.2022228 L17.5450144,22.2022228 C15.7972743,22.2022228 14.3174117,20.9129187 14.0780061,19.1816531 L12.1128534,4.9706184 C11.9237234,3.60292139 12.8791407,2.34086371 14.2468377,2.15173368 C14.4991562,2.11684217 14.7553252,2.12071656 15.0064732,2.16322265 Z M17.0497275,18.7707128 C17.0839283,19.0180365 17.2953373,19.2022228 17.5450144,19.2022228 L35.9566421,19.2022228 C36.201273,19.2022228 36.4099833,19.0252183 36.4499307,18.7838711 L37.9704035,9.59773923 C38.015381,9.32600202 37.8321243,9.06906471 37.560552,9.02310185 L15.177948,5.23490787 L17.0497275,18.7707128 Z" id="Combined-Shape"></path>
                </g>
            </g>
        </g>
    </g>
</svg>