<?xml version="1.0" encoding="UTF-8"?>
<svg width="37px" height="38px" viewBox="0 0 37 38" version="1.1" xmlns="http://www.w3.org/2000/svg" xmlns:xlink="http://www.w3.org/1999/xlink">
    <!-- Generator: Sketch 48.2 (47327) - http://www.bohemiancoding.com/sketch -->
    <title>Fill 2098</title>
    <desc>Created with Sketch.</desc>
    <defs></defs>
    <g id="个人中心" stroke="none" stroke-width="1" fill="none" fill-rule="evenodd" transform="translate(-637.000000, -517.000000)">
        <g id="订单选项" transform="translate(0.000000, 476.000000)" fill="#636463">
            <g id="1-copy-3" transform="translate(562.000000, 0.000000)">
                <g id="Group-7" transform="translate(64.000000, 31.000000)">
                    <g id="Group-5">
                        <path d="M28.4150675,47.8565338 C17.4456987,42.5682999 11,30.6644642 11,18.6756769 C11,18.4208222 11,18.0810161 11.0212379,17.6031636 C11.0318568,17.2208816 11.0424758,16.8598375 11.0637137,16.5625071 C11.0955705,15.840419 11.6371366,15.2245202 12.3592248,15.1501876 C14.196302,14.9165709 15.6404783,13.3555862 15.6404783,11.497271 C15.6404783,10.6477556 16.2882339,10 17.1165115,10 L41.0091345,10 C41.8161742,10 42.4533108,10.6477556 42.4533108,11.4335574 C42.4533108,13.3343483 43.8550114,14.9165709 45.7345644,15.1501876 C46.4141768,15.2245202 46.9769808,15.7979432 47.0194566,16.5200314 C47.0406945,16.8173618 47.0513134,17.1784059 47.0619324,17.6031636 C47.0725513,18.0810161 47.0831702,18.4208222 47.0831702,18.6756769 C47.0831702,30.6644642 40.6480904,42.547062 29.6999596,47.8565338 C29.3282966,48.0370559 28.8504441,48.0582937 28.4150675,47.8565338 Z M37.6110726,21.4578401 L37.6110726,21.4578401 C38.1951145,20.8737982 39.1189626,20.8737982 39.6923855,21.4578401 C40.2551895,22.0100252 40.2551895,22.9444922 39.6923855,23.5179152 L29.1159177,34.083764 C28.5637327,34.6678059 27.6292656,34.6678059 27.0452237,34.083764 L21.2685184,28.3070587 C20.6950955,27.7442547 20.6950955,26.8097877 21.2685184,26.2469837 C21.8419414,25.6841796 22.7657895,25.6841796 23.3498314,26.2469837 L28.0858802,30.9830325 L37.6110726,21.4578401 L37.6110726,21.4578401 Z M29.062823,44.9150864 L29.062823,44.9150864 C38.651729,39.9560398 44.1629608,29.3158583 44.1629608,18.6756769 L44.1417229,17.7836856 C41.9117447,17.0615975 40.2127138,15.1926634 39.6923855,12.9202095 L18.4226416,12.9202095 C17.9023133,15.1926634 16.1820445,17.0615975 13.9414474,17.7836856 L13.9414474,18.6756769 C13.9414474,29.3158583 19.4420601,39.9560398 29.062823,44.9150864 L29.062823,44.9150864 Z" id="Fill-2098"></path>
                    </g>
                </g>
            </g>
        </g>
    </g>
</svg>