<?xml version="1.0" encoding="UTF-8"?>
<svg width="39px" height="38px" viewBox="0 0 39 38" version="1.1" xmlns="http://www.w3.org/2000/svg" xmlns:xlink="http://www.w3.org/1999/xlink">
    <!-- Generator: Sketch 48.2 (47327) - http://www.bohemiancoding.com/sketch -->
    <title>Group 7</title>
    <desc>Created with Sketch.</desc>
    <defs></defs>
    <g id="女装模板" stroke="none" stroke-width="1" fill="none" fill-rule="evenodd" transform="translate(-264.000000, -1255.000000)">
        <g id="Group" transform="translate(0.000000, 1236.000000)" fill="#646464" fill-rule="nonzero">
            <g id="Group-2" transform="translate(264.000000, 19.000000)">
                <g id="Group-7">
                    <path d="M3,9 L3,34.9998909 L36,34.9998909 L36,9 L3,9 Z M2,6 L37,6 C38.1045695,6 39,6.8954305 39,8 L39,35.9998909 C39,37.1044604 38.1045695,37.9998909 37,37.9998909 L2,37.9998909 C0.8954305,37.9998909 1.3527075e-16,37.1044604 0,35.9998909 L0,8 C-1.3527075e-16,6.8954305 0.8954305,6 2,6 Z M28.5,19 C28.5,18.1715729 27.8284271,17.5 27,17.5 C26.1715729,17.5 25.5,18.1715729 25.5,19 C25.5,22.3137085 22.8137085,25 19.5,25 C16.1862915,25 13.5,22.3137085 13.5,19 C13.5,18.1715729 12.8284271,17.5 12,17.5 C11.1715729,17.5 10.5,18.1715729 10.5,19 C10.5,23.9705627 14.5294373,28 19.5,28 C24.4705627,28 28.5,23.9705627 28.5,19 Z M4.5,1.77635684e-15 L33.5,1.55431223e-15 C34.3284271,1.40213264e-15 35,0.671572875 35,1.5 C35,2.32842712 34.3284271,3 33.5,3 L4.5,3 C3.67157288,3 3,2.32842712 3,1.5 C3,0.671572875 3.67157288,1.92853643e-15 4.5,1.77635684e-15 Z" id="Combined-Shape"></path>
                </g>
            </g>
        </g>
    </g>
</svg>