<?xml version="1.0" encoding="UTF-8"?>
<svg width="28px" height="28px" viewBox="0 0 28 28" version="1.1" xmlns="http://www.w3.org/2000/svg" xmlns:xlink="http://www.w3.org/1999/xlink">
    <!-- Generator: Sketch 48.2 (47327) - http://www.bohemiancoding.com/sketch -->
    <title>地址-2</title>
    <desc>Created with Sketch.</desc>
    <defs></defs>
    <g id="个人中心" stroke="none" stroke-width="1" fill="none" fill-rule="evenodd" transform="translate(-39.000000, -1302.000000)">
        <g id="Group-9-Copy-10" transform="translate(0.000000, 1276.000000)" fill="#646464" fill-rule="nonzero">
            <g id="Group-12">
                <g id="Group-5" transform="translate(32.000000, 19.000000)">
                    <g id="地址-2" transform="translate(7.100575, 6.396552)">
                        <path d="M7.94731681,18.6746127 C3.51638589,19.4907927 0.625505351,21.089608 0.625505351,23.3521998 C0.625505351,26.5412764 6.69590911,28.5647444 14.1781213,28.5647444 C21.6603335,28.5647444 27.7307372,26.5412764 27.7307372,23.3521998 C27.7307372,21.0760264 24.8031127,19.4700585 20.3262573,18.6595155 C19.7597064,18.5569404 19.2172726,18.9330671 19.1146975,19.4996181 C19.0121224,20.066169 19.3882491,20.6086029 19.9548,20.711178 C23.4823567,21.3498487 25.6457194,22.5365756 25.6457194,23.3521998 C25.6457194,23.8700904 24.6385911,24.6637966 22.6944325,25.3118495 C20.4775154,26.0508219 17.4353818,26.4797265 14.1781213,26.4797265 C10.9208608,26.4797265 7.8787272,26.0508219 5.66181005,25.3118495 C3.71765145,24.6637966 2.71052319,23.8700904 2.71052319,23.3521998 C2.71052319,22.5445842 4.83942999,21.3671822 8.32502397,20.7251338 C8.89125973,20.6208328 9.26573188,20.0772554 9.16143093,19.5110196 C9.05712998,18.9447839 8.51355257,18.5703117 7.94731681,18.6746127 Z" id="Oval-2"></path>
                        <path d="M11.4468837,8.68321885 C11.4360181,9.99226288 12.4887632,11.0647676 13.797783,11.0782435 C15.0903543,11.0780158 16.1402882,10.0343243 16.1482239,8.74177734 C16.1561595,7.44923034 15.1191198,6.39272588 13.8266487,6.37662725 C12.5341776,6.36052861 11.4711447,7.39087519 11.4468837,8.68321885 Z M10.0310716,8.65961301 C10.0699853,6.58591723 11.7732872,4.93498869 13.844219,4.9607836 C15.9151507,4.9865785 17.5768036,6.67941992 17.5640884,8.75047328 C17.5513731,10.8215266 15.8690597,12.4938377 13.7949989,12.4941875 C11.697609,12.4726139 10.0136438,10.7570414 10.0310716,8.65961301 Z M17.7746626,8.67539226 C17.7918866,10.8920298 16.0143576,12.7029189 13.797783,12.7269088 C11.6112143,12.7265237 9.8351017,10.9609701 9.82167876,8.77444256 C9.80825581,6.58791499 11.5625581,4.80068848 13.7489573,4.77345801 C15.9353565,4.74622753 17.7336257,6.48920861 17.7746626,8.67539226 Z M17.3577021,8.68092425 C17.3209986,6.72627142 15.7112905,5.16605407 13.7541505,5.19042923 C11.7970105,5.2148044 10.226659,6.81462775 10.2386745,8.77188265 C10.2506899,10.7291376 11.8405647,12.3095605 13.7955621,12.3099174 C15.7800498,12.2884281 17.3731113,10.6654685 17.3577021,8.68092425 Z M20.072455,9.04950163 C20.1007095,5.55185334 17.2931442,2.69099037 13.795583,2.65347207 C10.3021871,2.69031097 7.49424441,5.55155846 7.52319077,9.05118588 C7.52319077,13.003131 10.2911819,17.3546543 13.7911313,21.0150425 C17.2961705,17.2740832 20.0724483,12.8937771 20.072455,9.04950163 Z M13.7956237,2.23649206 C17.5274774,2.27647651 20.5195564,5.32535584 20.4894518,9.05118588 C20.4894518,13.0933247 17.5915503,17.6093127 13.9440802,21.460837 L13.794273,21.6190251 L13.6428148,21.462417 C9.99881604,17.694516 7.1061872,13.2055977 7.10619433,9.05291082 C7.07535283,5.32507918 10.0678712,2.27575204 13.7956237,2.23649206 Z M13.2403578,23.1792154 C12.9392341,22.8924308 12.4799244,22.4239076 11.9203352,21.8027939 C11.0272475,20.8115148 10.1438834,19.7198851 9.32552762,18.5541511 C7.01285969,15.2597946 5.63088826,11.9872015 5.63092321,8.94333328 C5.57683701,5.98993465 7.12150123,3.23743901 9.67058587,1.74490549 C12.2196705,0.25237197 15.3759689,0.25237197 17.9250536,1.74490549 C20.4741382,3.23743901 22.0188024,5.98993465 21.9647512,8.93951559 C21.9647512,11.9088775 20.5837078,15.1620525 18.2725724,18.4812696 C17.454849,19.6556714 16.5721394,20.7610676 15.6798948,21.7689721 C15.1203737,22.4010229 14.6554491,22.8854244 14.3607288,23.1724892 L13.8043182,23.7126937 L13.592654,23.5104667 L13.2403578,23.1792154 Z M13.8013291,21.3614754 L14.0263398,21.1430186 C14.2676355,20.9079903 14.6520326,20.5074898 15.1157811,19.9836265 C15.8563529,19.1470558 16.5890885,18.2294685 17.2672932,17.2554413 C19.1704795,14.5221145 20.3042771,11.8513497 20.3043064,9.44150367 C20.3473964,7.08856078 19.116778,4.89567527 17.085948,3.70658888 C15.0551179,2.51750248 12.5405268,2.51750248 10.5096968,3.70658888 C8.47886681,4.89567527 7.24824841,7.08856078 7.29136769,9.44470881 C7.29136769,11.9173164 8.42559607,14.6032387 10.3296467,17.3155267 C11.0079944,18.2818217 11.740853,19.187462 12.4816813,20.0097414 C12.8297448,20.396073 13.1304012,20.7105522 13.3630165,20.9427054 L13.8013291,21.3614754 Z" id="Shape"></path>
                    </g>
                </g>
            </g>
        </g>
    </g>
</svg>